<svg width="32" height="33" viewBox="0 0 32 33" fill="none" xmlns="http://www.w3.org/2000/svg">
<g clip-path="url(#clip0_40_51)">
<path d="M14.3333 21.323C14.3333 23.9003 12.244 25.9896 9.66667 25.9896C7.08933 25.9896 5 23.9003 5 21.323C5 18.7457 7.08933 16.6562 9.66667 16.6562C12.244 16.6562 14.3333 18.7457 14.3333 21.323Z" stroke="#454545" stroke-width="2" stroke-linecap="round" stroke-linejoin="round"/>
<path d="M3.66602 28.651L9.33268 25.9844" stroke="#454545" stroke-width="2" stroke-linecap="round" stroke-linejoin="round"/>
<path d="M2.33398 20.6563L5.33417 19.6562" stroke="#454545" stroke-width="2" stroke-linecap="round" stroke-linejoin="round"/>
<path d="M9.63021 22.651C10.3666 22.651 10.9635 22.0541 10.9635 21.3177C10.9635 20.5813 10.3666 19.9844 9.63021 19.9844C8.89383 19.9844 8.29688 20.5813 8.29688 21.3177C8.29688 22.0541 8.89383 22.651 9.63021 22.651Z" fill="#454545"/>
<path d="M23.3327 20.987L22.3385 15.2707C22.1424 14.1434 21.164 13.3203 20.0197 13.3203C18.7197 13.3203 17.666 14.374 17.666 15.674V22.1158C17.666 24.0698 19.2499 25.6536 21.2039 25.6536C21.7276 25.6536 22.2449 25.7699 22.7183 25.9942L28.3327 28.6536" stroke="#454545" stroke-width="2" stroke-linecap="round" stroke-linejoin="round"/>
<path d="M19 13.1762V6.41238C19 5.07143 20.0871 3.98438 21.428 3.98438C22.5465 3.98438 23.5204 4.74858 23.7864 5.83507L27.118 19.4454C27.2077 19.8121 27.4487 20.1234 27.7811 20.3024L29.6667 21.3177" stroke="#454545" stroke-width="2" stroke-linecap="round" stroke-linejoin="round"/>
<path d="M13.0019 17.651V6.30959C13.0019 5.0254 11.9609 3.98438 10.6767 3.98438C9.52338 3.98438 8.54433 4.8298 8.3763 5.97083L6.65625 17.651" stroke="#454545" stroke-width="2" stroke-linecap="round" stroke-linejoin="round"/>
</g>
<defs>
<clipPath id="clip0_40_51">
<rect width="32" height="33" fill="white"/>
</clipPath>
</defs>
</svg>
